<svg aria-hidden="true" style="position:absolute;width:0;height:0;overflow:hidden" xmlns="http://www.w3.org/2000/svg">
  <defs>
    <symbol id="logo" viewBox="0 0 173 32">
      <path fill="#9bb537" style="fill:var(--color1, #9bb537)" d="M11.735 5.989v3.369H1.111V5.989h10.624zM3.734 1.562H8.09v17.35c0 .586.088 1.035.265 1.348.184.305.425.513.722.626s.626.168.987.168c.273 0 .521-.02.746-.06.233-.04.409-.076.529-.108l.734 3.405c-.233.08-.566.168-.999.265-.425.096-.947.152-1.564.168-1.091.032-2.074-.132-2.948-.493a4.593 4.593 0 0 1-2.082-1.709c-.505-.77-.754-1.733-.746-2.888V1.562zm15.607 23.282c-1.171 0-2.226-.209-3.164-.626a5.17 5.17 0 0 1-2.214-1.877c-.537-.826-.806-1.845-.806-3.056 0-1.043.193-1.905.578-2.587s.91-1.227 1.576-1.636a7.941 7.941 0 0 1 2.25-.926 18.208 18.208 0 0 1 2.611-.469c1.083-.112 1.961-.213 2.635-.301.674-.096 1.163-.241 1.468-.433.313-.201.469-.509.469-.926v-.072c0-.906-.269-1.608-.806-2.106s-1.312-.746-2.322-.746c-1.067 0-1.913.233-2.539.698-.618.465-1.035 1.015-1.251 1.648l-4.067-.578c.321-1.123.85-2.062 1.588-2.816.738-.762 1.64-1.332 2.707-1.709 1.067-.385 2.246-.578 3.537-.578.89 0 1.777.104 2.659.313s1.688.553 2.418 1.035c.73.473 1.315 1.119 1.757 1.937.449.818.674 1.841.674 3.068V24.47h-4.187v-2.539h-.144a5.332 5.332 0 0 1-1.119 1.444c-.473.441-1.071.798-1.793 1.071-.714.265-1.552.397-2.515.397zm1.131-3.201c.874 0 1.632-.173 2.274-.517.642-.353 1.135-.818 1.48-1.396a3.555 3.555 0 0 0 .529-1.889v-2.178c-.136.112-.369.217-.698.313-.321.096-.682.18-1.083.253s-.798.136-1.191.192l-1.023.144c-.65.088-1.231.233-1.745.433s-.918.481-1.215.842c-.297.353-.445.81-.445 1.372 0 .802.293 1.408.878 1.817s1.331.614 2.238.614zM46.73 10.874l-3.971.433a3.184 3.184 0 0 0-.59-1.131c-.273-.353-.642-.638-1.107-.854s-1.035-.325-1.709-.325c-.907 0-1.669.197-2.286.59-.61.393-.91.902-.902 1.528-.008.537.188.975.59 1.312.409.337 1.083.614 2.021.83l3.152.674c1.749.377 3.048.975 3.898 1.793.858.818 1.291 1.889 1.299 3.213-.008 1.163-.349 2.19-1.023 3.08-.666.882-1.592 1.572-2.779 2.07s-2.551.746-4.091.746c-2.262 0-4.083-.473-5.463-1.42-1.38-.955-2.202-2.282-2.467-3.983l4.247-.409c.193.834.602 1.464 1.227 1.889s1.44.638 2.443.638c1.035 0 1.865-.213 2.491-.638.634-.425.951-.951.951-1.576a1.64 1.64 0 0 0-.614-1.311c-.401-.345-1.027-.61-1.877-.794l-3.152-.662c-1.773-.369-3.084-.991-3.934-1.865-.85-.882-1.271-1.997-1.263-3.345-.008-1.139.301-2.126.926-2.96.634-.842 1.512-1.492 2.635-1.949 1.131-.465 2.434-.698 3.91-.698 2.166 0 3.87.461 5.114 1.384 1.251.922 2.025 2.17 2.322 3.742zm11.862-4.885v3.369H47.968V5.989h10.624zm-8.001-4.427h4.356v17.35c0 .586.088 1.035.265 1.348.184.305.425.513.722.626s.626.168.987.168c.273 0 .521-.02.746-.06.233-.04.409-.076.529-.108l.734 3.405c-.232.08-.565.168-.999.265-.425.096-.946.152-1.564.168-1.091.032-2.073-.132-2.948-.493a4.585 4.585 0 0 1-2.081-1.709c-.505-.77-.754-1.733-.746-2.888V1.562zm12.996 29.839a8.831 8.831 0 0 1-1.648-.144c-.497-.088-.895-.193-1.191-.313l1.011-3.393c.634.184 1.199.273 1.697.265s.934-.165 1.311-.469c.385-.297.71-.794.975-1.492l.373-.999L59.413 5.99h4.62l4.259 13.957h.192L72.755 5.99h4.632l-7.4 20.719c-.345.979-.802 1.817-1.372 2.515a5.564 5.564 0 0 1-2.094 1.612c-.818.377-1.797.565-2.936.565z"/>
      <path fill="#050505" style="fill:var(--color2, #050505)" d="M88.275 5.989v3.369H77.651V5.989h10.624zm-8.002-4.427h4.356v17.35c0 .586.088 1.035.265 1.348.184.305.425.513.722.626s.626.168.987.168c.273 0 .521-.02.746-.06.232-.04.409-.076.529-.108l.734 3.405c-.232.08-.565.168-.999.265-.425.096-.946.152-1.564.168-1.091.032-2.073-.132-2.948-.493a4.593 4.593 0 0 1-2.082-1.709c-.505-.77-.754-1.733-.746-2.888V1.562zm10.289 22.909V5.99h4.223v3.08h.192c.337-1.067.914-1.889 1.733-2.467.826-.586 1.769-.878 2.827-.878.241 0 .509.012.806.036.305.016.557.044.758.084v4.007c-.184-.064-.477-.12-.878-.168A8.102 8.102 0 0 0 99.08 9.6c-.794 0-1.508.172-2.142.517-.626.337-1.119.806-1.48 1.408s-.541 1.295-.541 2.082v10.865h-4.356zm19.5.361c-1.853 0-3.453-.385-4.801-1.155-1.339-.778-2.37-1.877-3.092-3.297-.722-1.428-1.083-3.108-1.083-5.041 0-1.901.361-3.57 1.083-5.005.73-1.444 1.749-2.567 3.056-3.369 1.307-.81 2.843-1.215 4.608-1.215 1.139 0 2.214.184 3.225.553a7.284 7.284 0 0 1 2.695 1.684c.786.762 1.404 1.733 1.853 2.912.449 1.171.674 2.567.674 4.187v1.336h-15.148v-2.936h10.973c-.008-.834-.189-1.576-.542-2.226a3.933 3.933 0 0 0-1.48-1.552c-.626-.377-1.355-.566-2.19-.566-.89 0-1.672.217-2.346.65a4.479 4.479 0 0 0-1.576 1.684 4.848 4.848 0 0 0-.566 2.274v2.563c0 1.075.197 1.997.59 2.767a4.207 4.207 0 0 0 1.649 1.757c.706.401 1.532.602 2.478.602a5.26 5.26 0 0 0 1.721-.265c.513-.184.959-.453 1.336-.806s.662-.79.854-1.311l4.067.457a6.34 6.34 0 0 1-1.468 2.815c-.714.794-1.628 1.412-2.743 1.853-1.115.433-2.39.65-3.826.65zm15.865.012c-1.171 0-2.226-.209-3.164-.626a5.16 5.16 0 0 1-2.214-1.877c-.537-.826-.806-1.845-.806-3.056 0-1.043.192-1.905.578-2.587s.91-1.227 1.576-1.636 1.416-.718 2.25-.926a18.208 18.208 0 0 1 2.611-.469c1.083-.112 1.961-.213 2.635-.301.674-.096 1.163-.241 1.468-.433.313-.201.469-.509.469-.926v-.072c0-.906-.269-1.608-.806-2.106s-1.311-.746-2.322-.746c-1.067 0-1.913.233-2.539.698-.618.465-1.035 1.015-1.251 1.648l-4.067-.578c.321-1.123.85-2.062 1.588-2.816.738-.762 1.64-1.332 2.707-1.709 1.067-.385 2.246-.578 3.538-.578.89 0 1.777.104 2.659.313s1.688.553 2.418 1.035c.73.473 1.316 1.119 1.757 1.937.449.818.674 1.841.674 3.068V24.47h-4.187v-2.539h-.144a5.332 5.332 0 0 1-1.119 1.444c-.473.441-1.071.798-1.793 1.071-.714.265-1.552.397-2.515.397zm1.131-3.201c.874 0 1.632-.173 2.274-.517.642-.353 1.135-.818 1.48-1.396.353-.578.53-1.207.53-1.889v-2.178c-.136.112-.369.217-.698.313-.321.096-.682.18-1.083.253s-.798.136-1.191.192l-1.023.144c-.65.088-1.231.233-1.745.433s-.918.481-1.215.842c-.297.353-.445.81-.445 1.372 0 .802.293 1.408.878 1.817s1.332.614 2.238.614zm20.88-15.654v3.369h-10.624V5.989h10.624zm-8.001-4.427h4.356v17.35c0 .586.088 1.035.265 1.348.184.305.425.513.722.626s.626.168.987.168c.273 0 .521-.02.746-.06.233-.04.409-.076.53-.108l.734 3.405a9.94 9.94 0 0 1-.999.265c-.425.096-.947.152-1.564.168-1.091.032-2.074-.132-2.948-.493a4.593 4.593 0 0 1-2.082-1.709c-.505-.77-.754-1.733-.746-2.888V1.562zm24.631 9.312-3.97.433a3.184 3.184 0 0 0-.59-1.131c-.273-.353-.642-.638-1.107-.854s-1.035-.325-1.709-.325c-.906 0-1.668.197-2.286.59-.609.393-.91.902-.902 1.528-.008.537.189.975.59 1.312.409.337 1.083.614 2.021.83l3.152.674c1.749.377 3.048.975 3.898 1.793.858.818 1.291 1.889 1.3 3.213-.008 1.163-.349 2.19-1.023 3.08-.666.882-1.592 1.572-2.779 2.07s-2.551.746-4.091.746c-2.262 0-4.083-.473-5.463-1.42-1.38-.955-2.202-2.282-2.467-3.983l4.247-.409c.193.834.602 1.464 1.227 1.889s1.44.638 2.443.638c1.035 0 1.865-.213 2.491-.638.634-.425.95-.951.95-1.576 0-.529-.204-.967-.614-1.311-.401-.345-1.027-.61-1.877-.794l-3.152-.662c-1.773-.369-3.084-.991-3.935-1.865-.85-.882-1.272-1.997-1.263-3.345-.008-1.139.301-2.126.927-2.96.634-.842 1.512-1.492 2.635-1.949 1.131-.465 2.435-.698 3.911-.698 2.166 0 3.87.461 5.114 1.384 1.251.922 2.025 2.17 2.322 3.742zm5.316 13.861c-.73 0-1.355-.257-1.877-.77s-.778-1.139-.77-1.877c-.008-.722.249-1.34.77-1.853s1.147-.77 1.877-.77c.706 0 1.32.257 1.841.77.53.513.798 1.131.806 1.853a2.568 2.568 0 0 1-.385 1.336 2.772 2.772 0 0 1-.962.963 2.51 2.51 0 0 1-1.3.349z"/>
    </symbol>
    <symbol id="basket" viewBox="0 0 32 32">
    <path stroke-linejoin="round" stroke-linecap="round" stroke-miterlimit="4" stroke-width="2.6667" d="M12 29.333c0.736 0 1.333-0.597 1.333-1.333s-0.597-1.333-1.333-1.333c-0.736 0-1.333 0.597-1.333 1.333s0.597 1.333 1.333 1.333z"></path>
    <path stroke-linejoin="round" stroke-linecap="round" stroke-miterlimit="4" stroke-width="2.6667" d="M26.667 29.333c0.736 0 1.333-0.597 1.333-1.333s-0.597-1.333-1.333-1.333c-0.736 0-1.333 0.597-1.333 1.333s0.597 1.333 1.333 1.333z"></path>
    <path stroke-linejoin="round" stroke-linecap="round" stroke-miterlimit="4" stroke-width="2.4" d="M1.333 1.333h5.333l3.573 17.853c0.122 0.614 0.456 1.165 0.943 1.558s1.098 0.601 1.723 0.589h12.96c0.626 0.012 1.236-0.197 1.723-0.589s0.821-0.944 0.943-1.558l2.133-11.187h-22.667"></path>
    </symbol>
    <symbol id="burger" viewBox="0 0 32 32">
    <path stroke-linejoin="round" stroke-linecap="round" stroke-miterlimit="4" stroke-width="2" d="M28 13.333h-24"></path>
    <path stroke-linejoin="round" stroke-linecap="round" stroke-miterlimit="4" stroke-width="2" d="M28 8h-24"></path>
    <path stroke-linejoin="round" stroke-linecap="round" stroke-miterlimit="4" stroke-width="2" d="M28 18.667h-24"></path>
    <path stroke-linejoin="round" stroke-linecap="round" stroke-miterlimit="4" stroke-width="2" d="M28 24h-24"></path>
    </symbol>
    <symbol id="cross-close" viewBox="0 0 32 32">
    <path stroke-linejoin="round" stroke-linecap="round" stroke-miterlimit="4" stroke-width="3.5556" d="M24 8l-16 16"></path>
    <path stroke-linejoin="round" stroke-linecap="round" stroke-miterlimit="4" stroke-width="3.5556" d="M8 8l16 16"></path>
    </symbol>
    <symbol id="cross-close-modal" viewBox="0 0 32 32">
    <path stroke-linejoin="round" stroke-linecap="round" stroke-miterlimit="4" stroke-width="2.6667" d="M24 8l-16 16"></path>
    <path stroke-linejoin="round" stroke-linecap="round" stroke-miterlimit="4" stroke-width="2.6667" d="M8 8l16 16"></path>
    </symbol>
    <symbol id="heart-favorite" viewBox="0 0 32 32">
    <path stroke-linejoin="round" stroke-linecap="round" stroke-miterlimit="4" stroke-width="2.9091" d="M15.991 6.848c-2.666-3.117-7.111-3.955-10.451-1.101s-3.81 7.625-1.187 11c2.181 2.806 8.781 8.725 10.944 10.641 0.242 0.214 0.363 0.321 0.504 0.364 0.123 0.037 0.258 0.037 0.381 0 0.141-0.042 0.262-0.149 0.504-0.364 2.163-1.916 8.763-7.834 10.944-10.641 2.623-3.375 2.21-8.177-1.187-11.001s-7.785-2.015-10.451 1.101z"></path>
    </symbol>
    <symbol id="menu-arrow-down" viewBox="0 0 32 32">
    <path stroke-linejoin="round" stroke-linecap="round" stroke-miterlimit="4" stroke-width="5.3333" d="M4 10l12 12 12-12"></path>
    </symbol>
    <symbol id="pagination-arrow" viewBox="0 0 32 32">
    <path d="M19.11 17.578c0.208-0.207 0.374-0.452 0.486-0.723s0.171-0.561 0.171-0.855c0-0.293-0.058-0.584-0.171-0.855s-0.278-0.517-0.486-0.723l-10.2-10.178c-0.208-0.207-0.374-0.452-0.486-0.723s-0.171-0.561-0.171-0.855c0-0.293 0.058-0.584 0.171-0.855s0.278-0.517 0.486-0.723c0.416-0.414 0.98-0.646 1.567-0.646s1.15 0.232 1.567 0.646l10.2 10.2c1.248 1.25 1.95 2.944 1.95 4.711s-0.701 3.461-1.95 4.711l-10.2 10.2c-0.414 0.41-0.973 0.642-1.556 0.645-0.292 0.002-0.582-0.054-0.853-0.165s-0.517-0.274-0.725-0.479c-0.208-0.207-0.374-0.452-0.486-0.723s-0.171-0.561-0.171-0.855 0.058-0.584 0.171-0.855c0.113-0.271 0.278-0.517 0.486-0.723l10.2-10.178z"></path>
    </symbol>
    <symbol id="rating-star" viewBox="0 0 32 32">
    <path d="M13.826 3.262c0.684-2.106 3.663-2.106 4.348 0l1.932 5.945c0.306 0.942 1.184 1.579 2.174 1.579h6.251c2.214 0 3.135 2.833 1.344 4.135l-5.057 3.674c-0.801 0.582-1.136 1.614-0.83 2.556l1.931 5.945c0.684 2.106-1.726 3.857-3.517 2.555l-5.057-3.674c-0.801-0.582-1.886-0.582-2.687 0l-5.057 3.674c-1.791 1.302-4.202-0.45-3.517-2.555l1.932-5.945c0.306-0.942-0.029-1.973-0.83-2.556l-5.057-3.674c-1.791-1.302-0.871-4.135 1.344-4.135h6.251c0.99 0 1.868-0.638 2.174-1.579l1.932-5.945z"></path>
    </symbol>
    <symbol id="search-dandruff" viewBox="0 0 32 32">
    <path d="M30.565 28.436l-5.565-5.52c2.16-2.693 3.206-6.112 2.923-9.553s-1.874-6.643-4.445-8.947c-2.571-2.304-5.927-3.536-9.379-3.441s-6.735 1.508-9.177 3.949c-2.441 2.441-3.855 5.725-3.949 9.177s1.137 6.808 3.441 9.379c2.304 2.571 5.506 4.162 8.947 4.445s6.86-0.763 9.553-2.923l5.52 5.52c0.139 0.141 0.305 0.252 0.488 0.328s0.379 0.115 0.577 0.115 0.394-0.039 0.577-0.115c0.183-0.076 0.349-0.188 0.488-0.328 0.27-0.28 0.421-0.654 0.421-1.043s-0.151-0.763-0.421-1.042zM14.5 25.001c-2.077 0-4.107-0.616-5.833-1.77s-3.073-2.794-3.867-4.712c-0.795-1.919-1.003-4.030-0.598-6.067s1.405-3.908 2.874-5.376c1.468-1.468 3.339-2.468 5.376-2.874s4.148-0.197 6.067 0.598c1.919 0.795 3.558 2.141 4.712 3.867s1.77 3.757 1.77 5.833c0 2.785-1.106 5.455-3.075 7.425s-4.64 3.075-7.425 3.075z"></path>
    </symbol>
  </defs>
</svg>